Coordinates
version=1
nRows=17
nColumns=36
inDegrees=yes

Units are S.I. units (second, meters, Newtons, ...)
Angles are in degrees.

endheader
time	pelvis_tilt	pelvis_list	pelvis_rotation	pelvis_tx	pelvis_ty	pelvis_tz	hip_flexion_r	hip_adduction_r	hip_rotation_r	knee_angle_r	ankle_angle_r	subtalar_angle_r	hip_flexion_l	hip_adduction_l	hip_rotation_l	knee_angle_l	ankle_angle_l	subtalar_angle_l	lumbar_extension	lumbar_bending	lumbar_rotation	arm_flex_r	arm_add_r	arm_rot_r	elbow_flex_r	pro_sup_r	wrist_flex_r	wrist_dev_r	arm_flex_l	arm_add_l	arm_rot_l	elbow_flex_l	pro_sup_l	wrist_flex_l	wrist_dev_l
      1.55000000	     -1.16836429	      5.89680563	      1.02899841	     -0.49180226	      0.90641334	     -0.20870066	      3.12261555	     -4.02868821	     -2.11473988	    -59.44015787	    -12.64652658	     -9.77079005	     22.22958261	     10.45336139	      3.48070099	    -28.23710411	      3.13036040	      0.52924615	     -4.41098874	     -4.86824516	     -0.09098090	     -7.14311565	    -18.36415874	      6.54968414	     26.02203501	     86.51662706	      0.00000000	      0.00000000	     -4.82313291	    -15.70904859	     16.09473686	     22.11843672	     86.51662706	      0.00000000	      0.00000000
      1.56000000	     -1.22864576	      5.88388326	      0.55185193	     -0.48030831	      0.90780200	     -0.20814695	      5.31995929	     -3.96825086	     -1.56484179	    -61.71600200	    -12.07469982	    -11.45596420	     21.33170178	     10.17997967	      2.67733943	    -27.93646196	      3.95482335	      1.20881441	     -4.39656258	     -4.85175751	     -0.14367602	     -7.04239660	    -18.32391621	      7.00484671	     25.66727100	     86.51662706	      0.00000000	      0.00000000	     -4.69281804	    -15.82593561	     15.94710892	     22.44326711	     86.51662706	      0.00000000	      0.00000000
      1.57000000	     -1.28552827	      5.80716836	      0.08288349	     -0.46891635	      0.90931581	     -0.20759025	      7.49027249	     -3.81560504	     -1.07592576	    -63.63521916	    -11.32877323	    -12.67843721	     20.39550162	      9.87506658	      1.98528431	    -27.56604054	      4.69903844	      1.77438013	     -4.39386365	     -4.75059699	     -0.23748829	     -6.93116758	    -18.30758647	      7.44660223	     25.36922167	     86.51662706	      0.00000000	      0.00000000	     -4.56640140	    -15.93543901	     15.80953693	     22.77781638	     86.51662706	      0.00000000	      0.00000000
      1.58000000	     -1.33620351	      5.68430135	     -0.35902086	     -0.45757869	      0.91093513	     -0.20703863	      9.60214094	     -3.59225187	     -0.64908194	    -65.18512738	    -10.48424547	    -13.38597150	     19.41370952	      9.57062659	      1.47047117	    -27.13112928	      5.37530019	      2.19355742	     -4.40306413	     -4.58608115	     -0.37718209	     -6.83284028	    -18.30314360	      7.84193664	     25.12959435	     86.51662706	      0.00000000	      0.00000000	     -4.44533416	    -16.03845444	     15.68178469	     23.12100430	     86.51662706	      0.00000000	      0.00000000
      1.59000000	     -1.37831665	      5.52963823	     -0.75725469	     -0.44626071	      0.91261262	     -0.20651045	     11.63147811	     -3.32090101	     -0.28937809	    -66.36563308	     -9.58179214	    -13.58464972	     18.38126945	      9.28962573	      1.17482668	    -26.63711669	      5.99410942	      2.44811053	     -4.42417522	     -4.37731872	     -0.56577759	     -6.76650868	    -18.30064864	      8.16212896	     24.94813222	     86.51662706	      0.00000000	      0.00000000	     -4.32926496	    -16.13749629	     15.56246349	     23.47513930	     86.51662706	      0.00000000	      0.00000000
      1.60000000	     -1.41042984	      5.35327939	     -1.09839434	     -0.43494325	      0.91428519	     -0.20603045	     13.56187205	     -3.02454637	     -0.00642458	    -67.18326471	     -8.63498792	    -13.33398856	     17.29841498	      9.04376848	      1.11084134	    -26.09110141	      6.56279204	      2.53544668	     -4.45661927	     -4.13855963	     -0.80462930	     -6.74432382	    -18.29324372	      8.38542887	     24.82200207	     86.51662706	      0.00000000	      0.00000000	     -4.21616804	    -16.23654209	     15.44947701	     23.84488069	     86.51662706	      0.00000000	      0.00000000
      1.61000000	     -1.43206137	      5.16114124	     -1.37303133	     -0.42361825	      0.91589879	     -0.20561075	     15.38332020	     -2.72465657	      0.18778643	    -67.64684685	     -7.64393197	    -12.73438841	     16.17206106	      8.83454389	      1.26169100	    -25.50260382	      7.08571394	      2.46868737	     -4.49927440	     -3.87865830	     -1.09326711	     -6.77042315	    -18.27742516	      8.49880373	     24.74548715	     86.51662706	      0.00000000	      0.00000000	     -4.10282473	    -16.34024701	     15.34035770	     24.23589344	     86.51662706	      0.00000000	      0.00000000
      1.62000000	     -1.44361167	      4.95607639	     -1.57655262	     -0.41227890	      0.91742598	     -0.20525006	     17.09016423	     -2.43905848	      0.28249776	    -67.76524171	     -6.60930376	    -11.91044949	     15.01445091	      8.65618339	      1.58651659	    -24.88310425	      7.56558938	      2.27505090	     -4.55087773	     -3.60233739	     -1.42924955	     -6.84153688	    -18.25255743	      8.49860462	     24.71008581	     86.51662706	      0.00000000	      0.00000000	     -3.98551495	    -16.45300396	     15.23248150	     24.65350731	     86.51662706	      0.00000000	      0.00000000
      1.63000000	     -1.44597497	      4.73999100	     -1.70950378	     -0.40092098	      0.91885584	     -0.20494947	     18.67917528	     -2.18060171	      0.27184190	    -67.54654125	     -5.54248616	    -10.99370629	     13.83950432	      8.49865712	      2.02942536	    -24.24455769	      8.00523798	      1.99251377	     -4.61053927	     -3.31247665	     -1.80817506	     -6.94895054	    -18.21979595	      8.39016160	     24.70501655	     86.51662706	      0.00000000	      0.00000000	     -3.86072666	    -16.57820649	     15.12318298	     25.10164704	     86.51662706	      0.00000000	      0.00000000
      1.64000000	     -1.43997742	      4.51585590	     -1.77724491	     -0.38955844	      0.92017732	     -0.20471548	     20.14811262	     -1.95694409	      0.15724100	    -66.99812808	     -4.46952132	    -10.10748547	     12.65842234	      8.35030430	      2.52999564	    -23.59731421	      8.40913008	      1.66504807	     -4.67813424	     -3.01253383	     -2.22380187	     -7.08116505	    -18.18078372	      8.18646782	     24.71804491	     86.51662706	      0.00000000	      0.00000000	     -3.72575964	    -16.71782924	     15.00983242	     25.58216508	     86.51662706	      0.00000000	      0.00000000
      1.65000000	     -1.42584100	      4.28855212	     -1.78899745	     -0.37822465	      0.92137185	     -0.20454863	     21.49468723	     -1.77108939	     -0.05225944	    -66.12725035	     -3.42893569	     -9.35534626	     11.47638777	      8.20053410	      3.03295256	    -22.94799914	      8.78418033	      1.33707295	     -4.75439951	     -2.70822176	     -2.66816628	     -7.22650192	    -18.13655605	      7.90621480	     24.73649158	     86.51662706	      0.00000000	      0.00000000	     -3.57916071	    -16.87234440	     14.88995891	     26.09458014	     86.51662706	      0.00000000	      0.00000000
      1.66000000	     -1.40265097	      4.06446680	     -1.75637079	     -0.36694035	      0.92241007	     -0.20442984	     22.71622458	     -1.62255334	     -0.34160250	    -64.94172169	     -2.46507617	     -8.81341830	     10.29146099	      8.04231754	      3.49529395	    -22.29811233	      9.13950743	      1.04801313	     -4.84069049	     -2.40782954	     -3.13171723	     -7.37504665	    -18.08698797	      7.57148581	     24.74825423	     86.51662706	      0.00000000	      0.00000000	     -3.42089313	    -17.04091239	     14.76146334	     26.63615288	     86.51662706	      0.00000000	      0.00000000
      1.67000000	     -1.36837149	      3.85053628	     -1.69168667	     -0.35568646	      0.92325363	     -0.20431600	     23.80996612	     -1.50910460	     -0.69254907	    -63.45048700	     -1.61935956	     -8.52617309	      9.09584398	      7.87364467	      3.89002083	    -21.64395410	      9.48523198	      0.82790463	     -4.93860997	     -2.12115028	     -3.60365783	     -7.51962379	    -18.03088399	      7.20542411	     24.74268570	     86.51662706	      0.00000000	      0.00000000	     -3.25213790	    -17.22170412	     14.62290136	     27.20218267	     86.51662706	      0.00000000	      0.00000000
      1.68000000	     -1.32069421	      3.65338414	     -1.60660575	     -0.34441828	      0.92387237	     -0.20416381	     24.77357408	     -1.42853606	     -1.08687855	    -61.66392074	     -0.92190822	     -8.50485782	      7.87908331	      7.69751303	      4.20641396	    -20.97786600	      9.83070791	      0.69477267	     -5.04973893	     -1.85767962	     -4.07269848	     -7.65585668	    -17.96655749	      6.83017003	     24.71120955	     86.51662706	      0.00000000	      0.00000000	     -3.07474489	    -17.41226442	     14.47378868	     27.78638282	     86.51662706	      0.00000000	      0.00000000
      1.69000000	     -1.25797553	      3.47873915	     -1.51096092	     -0.33310404	      0.92426354	     -0.20395819	     25.60571446	     -1.37973378	     -1.50910853	    -59.59380544	     -0.38564930	     -8.72792047	      6.63199163	      7.52056840	      4.44749566	    -20.29042171	     10.18273762	      0.65408938	     -5.17543221	     -1.62513559	     -4.52823655	     -7.78164004	    -17.89257515	      6.46528178	     24.64759920	     86.51662706	      0.00000000	      0.00000000	     -2.89051630	    -17.60984794	     14.31487535	     28.38120691	     86.51662706	      0.00000000	      0.00000000
      1.70000000	     -1.17966144	      3.33113897	     -1.41157091	     -0.32174302	      0.92444935	     -0.20370585	     26.30660960	     -1.36264748	     -1.94807099	    -57.25307381	     -0.00421586	     -9.14310668	      5.34961943	      7.35095573	      4.62581981	    -19.57321322	     10.54427361	      0.70014988	     -5.31649102	     -1.42894932	     -4.96172354	     -7.89643812	    -17.80828903	      6.12673686	     24.54790826	     86.51662706	      0.00000000	      0.00000000	     -2.70060515	    -17.81163639	     14.14833154	     28.97805361	     86.51662706	      0.00000000	      0.00000000
      1.71000000	     -1.08658173	      3.21393015	     -1.31165361	     -0.31034686	      0.92445733	     -0.20341301	     26.87811649	     -1.37732572	     -2.39717581	    -54.65553113	      0.24611968	     -9.67138070	      4.03233049	      7.19612982	      4.75889765	    -18.82175736	     10.91393150	      0.81882893	     -5.47258486	     -1.27249258	     -5.36779391	     -8.00070067	    -17.71391294	      5.82649917	     24.41012623	     86.51662706	      0.00000000	      0.00000000	     -2.50525889	    -18.01480526	     13.97779651	     29.56736275	     86.51662706	      0.00000000	      0.00000000
